<svg width="213" height="158" fill="none" xmlns="http://www.w3.org/2000/svg"><g clip-path="url(#clip0)"><path d="M66.695 83.024c1.576 4.337 8.21 1.66 8.21 1.66s6.84-2.112 5.265-6.449c-1.576-4.337-3.953-6.117-9.59-5.458-3.955.462-5.46 5.91-3.885 10.247z" fill="#BBED58"/><path opacity=".5" d="M106.778 24.218c-.459-1.263-2.402-.48-2.402-.48s-2.003.62-1.544 1.883c.459 1.263 1.154 1.781 2.804 1.587 1.158-.137 1.601-1.726 1.142-2.99z" fill="#0070F6"/><path d="M185.928 113.629c.277-1.419-.825-1.955-2.26-2.229-1.435-.274-2.66-.181-2.937 1.238-.276 1.42.663 2.792 2.098 3.066 1.435.274 2.823-.655 3.099-2.075z" fill="#FFBF00"/><path d="M30.405 96.474c.283-1.452-.844-2-2.312-2.28-1.468-.28-2.721-.186-3.004 1.266-.283 1.452.677 2.856 2.145 3.136 1.468.28 2.888-.67 3.171-2.122z" fill="#FFDDBF"/><path d="M112.83 75.522c-1.745-2.597-.042-6.53 2.716-7.337 3.233-.953 5.468 2.69 4.046 5.387-1.084 2-3.183 3.174-4.344 5.123-1.472 2.444-1.23 6.414 1.164 8.476 5.757 4.984 15.896 1.935 19.382-3.624 2.613-4.23 3.188-9.74 1.736-14.64-1.452-4.901-4.988-9.732-10.463-9.427-2.839.14-6.91 2.137-6.157 5.678.693 3.04 4.257 3.73 6.622 2.752 2.324-.984 4.041-3.397 4.247-5.998a6.025 6.025 0 00-.045-1.383" stroke="#071D2B" stroke-width="1.5" stroke-miterlimit="10" stroke-linecap="round" stroke-linejoin="round"/><path d="M134.038 57.186c1.283-1.277 3.315-.942 4.959-.492 3.533.932 7.352 1.899 10.764.517 3.019-1.225 5.457-4.082 5.755-7.41.325-3.86-3.099-8.266-6.944-9.03-2.308-.452-4.734.355-6.415 1.828-1.308 1.151-3.128 3.716-1.434 5.404 2.241 2.29 6.123-.183 7.524-2.061 3.097-4.13.716-9.884-3.7-12.362-1.628-.9-3.522-1.34-5.335-1.114-3.923.497-8.678 2.984-7.946 7.672.229 1.465 1.535 2.94 3.113 2.931a4.3 4.3 0 002.518-.877c1.431-1.135 2.065-3.19 1.964-5.009-.105-2.434-1.355-5.011-3.504-6.386-2.884-1.795-6.714-1.697-9.779-.764-4.28 1.356-7.265 5.253-7.457 9.703-.237 4.485 2.543 8.072 5.657 11.004 3.149 2.977 7.105 5.48 8.026 9.985m-18.935 14.802c-.923-1.223-1.402-3.335-1.243-4.915.252-2.309 1.877-3.994 3.548-5.387 2.595-2.14 6.35-4.26 7.057-7.865.8-4.005-3.028-7.19-6.536-8.323-3.507-1.133-7.465-.681-10.592 1.064-2.942 1.605-5.12 4.371-5.673 7.75a9.16 9.16 0 00.426 4.485c1.549 4.46 6.507 6.267 10.782 4.951 2.16-.675 4.199-2.35 5.007-4.466.977-2.464-.538-4.91-2.999-5.79-2.42-.876-5.183-.029-7.109 1.414-2.749 2.04-3.543 5.347-4.04 8.61-.282 1.893.181 4.126-.862 5.802-.516.798-1.308 1.15-2.181 1.494-.654.247-1.584.706-1.069 1.55.276.444.73.46 1.215.561.894.152.873.97.827 1.662-.294 3.616-.961 8.869 2.495 11.391 2.164 1.582 4.769 1.003 7.123.434 2.569-.624 6.298-1.557 7.909 1.434 1.184 2.118-.089 4.627-1.27 6.41-.879 1.367-7.432 9.828-9.486 12.282-3.424 4.088-6.813 8.223-10.012 12.504-.051.076-.149.187-.2.262-.5.677-1.007 1.394-1.507 2.07-3.875 5.346-7.657 10.95-13.053 14.876-3.883 2.801-9.484 2.803-13.456-.235-6.017-4.565-5.864-12.303-4.788-18.817.58-3.581 1.568-7.111 2.785-10.489 2.16-5.888 5.472-11.714 7.039-17.84l.01-.08c.112-.233.378-.364.664-.329 2.532.644.118 6.582-.388 7.955l-1.105 2.818" stroke="#071D2B" stroke-width="1.5" stroke-miterlimit="10" stroke-linecap="round" stroke-linejoin="round"/><path d="M72.146 102.765c.087-.031.133-.066.22-.096 2.529-1.615 5.058-3.23 7.622-4.799.312-.166.715-.075.843.228.566 1.097-.916 2.636-1.744 3.272-1.46 1.05-3.02 2.21-4.588 3.124-.536.302-1.016.489-1.685.857" stroke="#071D2B" stroke-width="1.5" stroke-miterlimit="10" stroke-linecap="round" stroke-linejoin="round"/><path d="M72.773 105.346c1.548-.095 3.054-.195 4.597-.249.837-.061 2.957-.413 2.956.9-.01.41-.098.768-.46 1.01-.64.454-1.589.419-2.38.443-1.252.05-2.33.039-3.907.048m64.645 21.469c-11.406 5.313-26.335 2.95-35.496-5.616a22.99 22.99 0 01-3.704-4.483c-2.689-4.315-3.768-9.538-1.283-14.072 3.129-5.685 10.938-7.382 17.188-5.949.362.086.725.172 1.082.299 6.597 1.969 11.863 7.22 15.685 12.743 3.484 5.005 5.793 11.045 6.528 17.078zm0 0c.714 6.121-1.747 11.916-6.667 15.696-6.939 5.294-16.466 2.222-22.963-2.813a26.608 26.608 0 01-2.062-1.734c-5.15-4.538-8.752-9.829-11.848-15.508-2.397-4.32-4.472-8.887-6.716-13.434-.266-.525-.5-.965-.766-1.49m51.022 19.283c6.598-3.073 12.877-7.097 18.557-11.821 25.887-21.527 39.334-57.58 13.839-84.353-23.15-24.31-72.055-24.69-91.255-5.446" stroke="#071D2B" stroke-width="1.5" stroke-miterlimit="10" stroke-linecap="round" stroke-linejoin="round"/><path d="M68.824 91.353c-11.804-3.766-27.589 4.205-29.042 17.28-1.28 11.373 8.6 23.436 20.815 22.327.884-.095 1.777-.271 2.605-.579 2.17-.756 4.378-2.123 5.543-4.113 2.49-4.246-.937-10.582 3.426-13.897l.138-.106c1.369-.979 3.004-1.761 4.618-2.053.214-.055.423-.07.638-.126.889-.135 2.267-.21 2.62-1.028.113-.233.154-.556.042-.98-.168-.637-.822-.718-1.49-.678-.21.015-.42.03-.588.05l-.041-.005-.04-.005" stroke="#071D2B" stroke-width="1.5" stroke-miterlimit="10" stroke-linecap="round" stroke-linejoin="round"/><path d="M68.1 104.888l1.397-26.667c.067-1.51 1.37-2.62 2.887-2.473l15.962 1.41c1.517.147 2.68 1.44 2.613 2.95l-1.407 27.077c-.067 1.51-1.37 2.62-2.886 2.473l-6.445-.555m26.303-28.702c-2.386 1.469-4.766 1.912-7.39 1.34m3.842-9.661c1.227-1.489 3.581-1.401 4.295.493" stroke="#071D2B" stroke-width="1.5" stroke-miterlimit="10" stroke-linecap="round" stroke-linejoin="round"/><path d="M74.12 80.377a.989.989 0 01-1.125.865 1.057 1.057 0 01-.912-1.162.989.989 0 011.126-.864c.564.07.982.602.911 1.161zM56.947 54.99H46.495c-1.073 0-1.95-.862-1.95-1.915v-7.356c0-1.053.877-1.915 1.95-1.915h10.452c1.073 0 1.95.862 1.95 1.915v7.356c0 1.053-.877 1.915-1.95 1.915zm-8.859-11.187V40.64c0-2.028 1.66-3.67 3.711-3.67s3.711 1.642 3.73 3.67v3.164" stroke="#071D2B" stroke-width="1.5" stroke-miterlimit="10" stroke-linecap="round" stroke-linejoin="round"/><path d="M47.576 48.686l2.834 2.651 5.494-4.894" stroke="#071D2B" stroke-width="1.5" stroke-miterlimit="10" stroke-linecap="round" stroke-linejoin="round"/><path clip-rule="evenodd" d="M70.147 43.552c0 2.98-.438 6.306-1.083 8.208-2.02 6.03-7.382 11.303-16.087 15.82-.385.187-.806.28-1.263.28-.456 0-.878-.093-1.262-.28-8.706-4.517-14.266-9.712-16.052-15.82-.68-2.327-1.142-5.204-1.118-8.208.024-3.003 0-7.258 0-7.293 0-2.514 1.6-4.418 3.932-5 1.544-.385 11.903-3.353 11.903-3.353s1.76-.559 2.597-.559c.838 0 2.742.559 2.742.559s9.474 2.724 11.831 3.353c2.357.628 3.86 2.451 3.86 5v7.293z" stroke="#071D2B" stroke-width="1.5" stroke-linecap="round" stroke-linejoin="round"/><path d="M170.503 125.084a2.036 2.036 0 002.048-2.025 2.037 2.037 0 00-2.048-2.026 2.037 2.037 0 00-2.048 2.026c0 1.119.917 2.025 2.048 2.025zM33.282 22.79c.849 0 1.536-.68 1.536-1.52 0-.839-.688-1.519-1.536-1.519-.848 0-1.536.68-1.536 1.52 0 .838.688 1.518 1.536 1.518zM179.72 33.424c.848 0 1.536-.68 1.536-1.519 0-.84-.688-1.52-1.536-1.52-.849 0-1.536.68-1.536 1.52 0 .839.687 1.52 1.536 1.52zm-159.75 7.09v-3.039m0-3.038v-3.039m1.536 4.558h3.072m-9.216 0h3.072m139.268 53.68v3.038m0 3.039v3.038m-1.536-4.558h-3.072m9.216 0h-3.072m31.746-53.173v1.9m0 2.278v1.899m3.072-3.038h-1.92m-2.304 0h-1.92" stroke="#071D2B" stroke-width="1.5" stroke-miterlimit="10" stroke-linecap="round" stroke-linejoin="round"/><path d="M154 43.001s1 2.816 1 6-1 6-1 6 2.5-1 6-1 6 1 6 1" stroke="#071D2B" stroke-width="1.5" stroke-linecap="round" stroke-linejoin="round"/></g><defs><clipPath id="clip0"><path fill="#fff" transform="translate(0 .001)" d="M0 0h213v158H0z"/></clipPath></defs></svg>