<svg width="213" height="158" fill="none" xmlns="http://www.w3.org/2000/svg"><g clip-path="url(#clip0)"><path d="M106.856 95.197c5.008-.151 5.221-3.445 5.221-3.445s.983-2.542-5.221-3.081c-3.599-.313-6.499.944-6.499 2.968 0 2.025 1.567 3.707 6.499 3.558z" fill="#BBED58"/><path d="M169.546 66.53c-.058-1.396-1.216-1.66-2.629-1.602-1.413.058-2.545.414-2.487 1.811.058 1.397 1.25 2.483 2.663 2.426 1.413-.058 2.511-1.237 2.453-2.634z" fill="#FFDDBF"/><path opacity=".5" d="M15.629 66.606c.173-2.27 9.735-2.088 9.735-2.088s7.695.904 7.522 3.174c-.173 2.27 1.018 3.105-7.997 3.06-6.325-.033-9.433-1.876-9.26-4.146zM76.47 24.971c-.049-2.276 8.453-2.173 8.453-2.173s6.808-.625 6.857 1.65c.049 2.277 1.174 2.998-6.78 3.79-5.578.555-8.482-.99-8.53-3.267zm97.795 75.455c-.048-2.276 8.454-2.173 8.454-2.173s5.4.248 5.449 2.524c.049 2.276-1.024 1.519-5.371 2.916-5.333 1.713-8.483-.99-8.532-3.267z" fill="#0070F6"/><path d="M155.527 93.21v23.771m-98.179.001v-69.91c0-2.517 2.084-4.533 4.608-4.533h89.091c2.524 0 4.608 2.036 4.608 4.558v11.141" stroke="#071D2B" stroke-width="1.5" stroke-miterlimit="10" stroke-linecap="round" stroke-linejoin="round"/><path d="M150.536 92.283v19.128h-21.505m21.505-46.59V50.136H62.981v61.275h52.225m-70.147 5.57h122.884c-.343 2.75-2.852 5.065-5.632 5.065H50.179c-2.668.005-5.12-2.401-5.12-5.065zm102.464-42.194l5.054 4.198m-.27 8.199l3.62 3.003m-10.292-8.537l3.62 3.007m8.028-1.767l5.095 4.223m4.776-17.562c1.697 0 3.072-1.36 3.072-3.038 0-1.678-1.375-3.039-3.072-3.039s-3.072 1.36-3.072 3.039c0 1.678 1.375 3.038 3.072 3.038z" stroke="#071D2B" stroke-width="1.5" stroke-miterlimit="10" stroke-linecap="round" stroke-linejoin="round"/><path d="M167.153 71.577c2.828 0 5.121-2.268 5.121-5.064 0-2.797-2.293-5.065-5.121-5.065-2.827 0-5.12 2.268-5.12 5.065 0 2.796 2.293 5.064 5.12 5.064zm-10.94 3.499l4.316 3.58-12.693 10.625 8.377-14.205z" stroke="#071D2B" stroke-width="1.5" stroke-miterlimit="10" stroke-linecap="round" stroke-linejoin="round"/><path d="M179.98 51.265c-8.29.395-16.405 3.676-22.606 9.125-6.201 5.454-10.445 13.04-11.817 21.133" stroke="#071D2B" stroke-width="1.5" stroke-miterlimit="10" stroke-linecap="round" stroke-linejoin="round"/><path d="M148.532 71.926c-2.949.071-5.898.147-8.812.233a1304.502 1304.502 0 01-5.468 6.447l11.449 1.777m34.408-29.012c1.045 8.143-.809 16.615-5.161 23.604-4.352 6.988-11.172 12.437-18.991 15.177" stroke="#071D2B" stroke-width="1.5" stroke-miterlimit="10" stroke-linecap="round" stroke-linejoin="round"/><path d="M164.998 85.59c.441 2.886.881 5.767 1.301 8.623a1173.627 1173.627 0 00-5.469 6.447l-3.758-10.842M106.5 102.741c12.442 0 22.528-9.976 22.528-22.282S118.942 58.177 106.5 58.177c-12.443 0-22.53 9.976-22.53 22.282s10.087 22.282 22.53 22.282z" stroke="#071D2B" stroke-width="1.5" stroke-miterlimit="10" stroke-linecap="round" stroke-linejoin="round"/><path d="M106.499 98.183c9.897 0 17.92-7.935 17.92-17.724 0-9.789-8.023-17.724-17.92-17.724-9.897 0-17.92 7.935-17.92 17.724 0 9.789 8.023 17.724 17.92 17.724zm.175-33.903v3.797M90.418 79.775h3.84m24.582 1.363h3.84m-27.45-12.3l2.716 2.686m19.919-2.688l-2.715 2.686" stroke="#071D2B" stroke-width="1.5" stroke-miterlimit="10" stroke-linecap="round" stroke-linejoin="round"/><path d="M106.499 82.485a2.037 2.037 0 002.048-2.026 2.037 2.037 0 00-2.048-2.026 2.037 2.037 0 00-2.048 2.026c0 1.119.917 2.026 2.048 2.026zm13.323-9.192L106.51 80.46M95.502 90.567c2.391-2.264 6.426-3.752 10.998-3.752 4.588 0 8.628 1.493 11.019 3.767" stroke="#071D2B" stroke-width="1.5" stroke-miterlimit="10" stroke-linecap="round" stroke-linejoin="round"/><path d="M102.414 91.722c0-.841.686-1.52 1.536-1.52h5.12c.85 0 1.536.679 1.536 1.52 0 .84-.686 1.519-1.536 1.519h-5.12a1.53 1.53 0 01-1.536-1.52zm4.085-44.302c.565 0 1.024-.453 1.024-1.012 0-.56-.459-1.013-1.024-1.013-.566 0-1.024.454-1.024 1.013 0 .56.458 1.013 1.024 1.013zm40.738 44.428c-4.173-2.43-9.565-3.296-13.794-.962-4.229 2.335-6.375 8.467-3.543 12.407.911 1.266 2.34 2.254 3.891 2.218 1.546-.035 3.083-1.342 3.026-2.907-.082-2.263-2.954-3.25-5.171-2.982-4.926.602-9.237 4.694-10.148 9.627-.41 2.228.629 5.307 2.852 5.064 1.914-.208 2.529-3.165 1.152-4.528-1.373-1.362-3.728-1.18-5.341-.111s-2.652 2.795-3.645 4.467M50.818 84.065c-9.924 1.723-19.576 6.806-25.332 15.212-5.756 8.405-6.93 20.323-1.507 28.961 5.423 8.638 17.817 12.416 26.342 6.967 5.023-3.213 8.683-6.308 14.557-7.153 7.93-1.139 13.59 5.824 21.555 6.678 3.86.413 7.878-1.262 10.338-4.319M18.476 68.656c-2.21 0-2.21-1.732-2.009-2.079 1.608-3.266 4.37-1.584 5.224-2.425.453-.445.553-.495 1.055-.841 1.96-1.337 3.014 1.485 4.572-.05.753-.742 3.064-.742 3.516 1.089.402 1.683 1.758.792 2.763 1.584.803.643 1.758 1.435.854 2.425-.704.792-2.512.446-3.818.396-4.973-.148-7.183-.05-12.157-.099zm60.93-42.539c-2.21 0-2.21-1.732-2.01-2.078 1.608-3.267 4.371-1.584 5.225-2.426.452-.445.553-.494 1.055-.84 1.96-1.337 3.014 1.484 4.571-.05.754-.743 3.064-.743 3.517 1.088.401 1.683 1.758.792 2.762 1.584.804.644 1.759 1.436.854 2.425-.703.792-2.511.446-3.817.396-4.974-.148-7.184-.05-12.157-.099zm96.772 75.962c-2.211 0-2.211-1.732-2.01-2.079 1.608-3.266 4.371-1.584 5.225-2.425.452-.446.552-.495 1.054-.841 1.96-1.337 3.014 1.484 4.572-.05.753-.742 3.064-.742 3.516 1.089.402 1.683 1.758.792 2.763 1.584.804.643 1.758 1.435.854 2.425-.703.792-2.512.445-3.818.396-4.973-.149-7.183-.05-12.156-.099zm17.877-34.219v2.025m0 3.039v2.026m-1.536-3.545h-2.048m7.168 0h-2.048M39.938 35.45v3.038m0 3.039v3.038m-1.536-4.558H35.33m9.216 0h-3.072" stroke="#071D2B" stroke-width="1.5" stroke-miterlimit="10" stroke-linecap="round" stroke-linejoin="round"/></g><defs><clipPath id="clip0"><path fill="#fff" transform="translate(0 .001)" d="M0 0h213v158H0z"/></clipPath></defs></svg>