<svg width="213" height="158" fill="none" xmlns="http://www.w3.org/2000/svg"><g clip-path="url(#clip0)"><path d="M166.964 85.908c2.595-.533 3.979-3.314 3.524-5.48-.455-2.167-2.957-4.05-5.551-3.518-2.595.533-4.442 2.07-3.987 4.237.454 2.166 3.419 5.294 6.014 4.76z" fill="#FFBF00"/><path d="M69.887 51.175c-1.92 2.38-1.184 5.796.746 7.32s5.474 1.29 7.395-1.09c1.921-2.381 1.473-5.492-.457-7.016-1.93-1.525-5.762-1.594-7.684.786z" fill="#FFDDBF"/><path opacity=".5" d="M186.766 61.806c.186-1.29-1.014-2.666-2.116-2.821-1.103-.156-1.852.778-2.038 2.07l-.001.009c-.185 1.287-.332 2.303.768 2.458 1.103.156 3.201-.424 3.387-1.716zm-158.372 30.2c1.051-.216 1.592-1.44 1.389-2.406-.203-.965-1.236-1.822-2.287-1.606-1.052.216-1.79.884-1.588 1.85.203.965 1.435 2.378 2.486 2.162z" fill="#0070F6"/><path d="M98.93 129.575l7.694-6.133c4.782-3.813 7.556-9.534 7.556-15.577V89.47c0-1.587-1.31-2.873-2.928-2.873H83.314c-1.617 0-2.927 1.286-2.927 2.873v18.395c0 6.043 2.773 11.764 7.556 15.577a9680.77 9680.77 0 007.7 6.138 2.65 2.65 0 003.287-.005z" fill="#BBED58"/><path d="M112.456 56.718h-11.912a.709.709 0 01-.7-.714v-3.636c0-.397.313-.714.7-.714h11.912c.387 0 .7.322.7.714v3.636a.709.709 0 01-.7.714z" fill="#071D2B" fill-opacity=".15"/><path d="M127.456 22.533c-.358-.167-.67-.415-1.069-.486-1.1-.202-1.54 1.018-.891 1.773.461.536 1.106.916 1.668 1.351.671.522 1.505 1.084 2.16 1.62" stroke="#071D2B" stroke-width="1.5" stroke-linecap="round" stroke-linejoin="round"/><path d="M126.903 24.98c-.358-.264-.691-.44-1.075-.512-1.069-.192-1.488.988-.859 1.717.45.521 1.069.886 1.617 1.311.649.506 1.458 1.048 2.092 1.57" stroke="#071D2B" stroke-width="1.5" stroke-linecap="round" stroke-linejoin="round"/><path d="M128.183 31.035c-.717-.308-1.53-.84-2.154-1.326-.512-.4-1.095-.745-1.52-1.236a1.19 1.19 0 01-.266-.582c-.077-.542.266-1.078.906-1.053.056 0 .112.005.168.02.364.066.742.273 1.106.522M92.25 20.204c1.182-.005 2.374-.141 3.55.087.594.116 1.08.288 1.075.957-.005.921-.9 1.083-1.678 1.16-1.028.1-3.766.39-6.564.566" stroke="#071D2B" stroke-width="1.5" stroke-linecap="round" stroke-linejoin="round"/><path d="M92.594 22.63c1.202-.056 2.297-.39 3.412-.005.507.172.906.562.9 1.12-.01.774-.751 1.047-1.422 1.113-1.028.102-4.349.512-6.671.775" stroke="#071D2B" stroke-width="1.5" stroke-linecap="round" stroke-linejoin="round"/><path d="M88.47 20.402c1.933-.046 2.113-.117 3.305-.172 1.038-.046 2.277-.102 3.32-.071.844.025 1.919-.091 1.832-1.17-.097-1.19-2.077-1.215-2.906-1.256-1.1-.05-4.364.157-4.743.152l-.844.112c-.752.096-1.49.288-2.16.689-1.54.921-2.46 2.617-3.473 4.02-.942 1.306-11.052 14.41-12.914 17.226m21.749-14.629c.983-.101 3.781-.815 4.324.405.424.962-.604 1.347-1.305 1.545-.972.278-1.975.435-2.973.582-.665.096-1.335.167-1.995.294-2.098.41-3.607 1.833-4.994 3.362m10.585 30.785c-.609 7.99-9.291 12.203-15.38 15.793-6.528 3.848-13.937 8.279-17.37 15.322-2.896 5.94-2.103 13.337 1.5 18.8 3.463 5.251 9.091 7.428 15.082 7.302m49.487-46.234a50.178 50.178 0 01-1.213-.643c-4.522-2.481-10.038-6.324-9.915-11.843" stroke="#071D2B" stroke-width="1.5" stroke-linecap="round" stroke-linejoin="round"/><path d="M76.184 102.024c-5.32 5.378-6.195 13.358-4.021 20.381a26.001 26.001 0 001.821 4.415c6.248 11.929 19.525 18.233 32.766 20.365a66.35 66.35 0 0010.504.846c3.878 0 7.669-.385 11.338-1.124m-22.18-111.649l9.235 9.636a6.565 6.565 0 011.807 4.511v14.522c0 5.914-4.83 10.709-10.791 10.709h-.501c-5.961 0-10.79-4.795-10.79-10.71v-14.52c0-1.676.644-3.291 1.805-4.511l9.235-9.636zm2.906-2.298c0 1.129-1.299 2.05-2.906 2.05-1.601 0-2.906-.916-2.906-2.05 0-1.13 1.299-2.051 2.906-2.051 1.607.005 2.906.921 2.906 2.05z" stroke="#071D2B" stroke-width="1.5" stroke-linecap="round" stroke-linejoin="round"/><path d="M112.456 56.719h-11.912a.709.709 0 01-.7-.714v-3.636c0-.397.313-.714.7-.714h11.912c.387 0 .7.322.7.714v3.636a.709.709 0 01-.7.714zm-10.565-2.532h2.56m4.096 0h2.56m-11.838 80.901l9.583-7.731c5.955-4.806 9.414-12.016 9.414-19.631V84.551c0-2-1.632-3.62-3.648-3.62H79.832c-2.016 0-3.648 1.62-3.648 3.62v23.175c0 7.615 3.458 14.825 9.409 19.631 3.581 2.891 7.342 5.924 9.583 7.731a3.256 3.256 0 004.093 0z" stroke="#071D2B" stroke-width="1.5" stroke-linecap="round" stroke-linejoin="round"/><path d="M98.86 129.746l7.665-6.182a20.173 20.173 0 007.527-15.702V89.32c0-1.6-1.305-2.896-2.917-2.896H83.307a2.905 2.905 0 00-2.916 2.896v18.542a20.174 20.174 0 007.526 15.702 9143.42 9143.42 0 007.67 6.187 2.616 2.616 0 003.274-.005zm31.728-41.393V54.489m-1.99 33.884V54.478m1.989 47.602v50.882a.994.994 0 01-.998.988.997.997 0 01-.997-.988v-50.811m4.22-53.059c.665 1.61.317 3.504-.987 4.663-.62.552-1.387.901-2.216.901-1.044 0-1.985-.552-2.666-1.357-.956-1.139-1.151-2.734-.613-4.116l2.757-7.13c.144-.364.66-.374.809-.01l2.916 7.049zM84.994 89.635h24.577M84.994 99.764h24.577m-24.577 10.128h24.577M88.578 120.02h17.409" stroke="#071D2B" stroke-width="1.5" stroke-linecap="round" stroke-linejoin="round"/><path d="M84.652 96.297l4.18-4.076 4.18 4.076m0 0l4.18-4.076 4.18 4.076m.067 0l4.181-4.076 4.18 4.076m-24.156 20.604l3.853-3.757 3.848 3.757" stroke="#071D2B" stroke-width="1.5" stroke-linecap="round" stroke-linejoin="round"/><path d="M93.344 116.901l3.847-3.757 3.848 3.757m.066 0l3.848-3.757 3.848 3.757m-20.733-10.047a2.037 2.037 0 002.048-2.026 2.037 2.037 0 00-2.048-2.026 2.037 2.037 0 00-2.049 2.026c0 1.119.917 2.026 2.049 2.026zm9.214 0a2.037 2.037 0 002.049-2.026 2.037 2.037 0 00-2.049-2.026 2.037 2.037 0 00-2.048 2.026c0 1.119.917 2.026 2.049 2.026zm0 20.256a2.037 2.037 0 002.049-2.026 2.037 2.037 0 00-2.049-2.025 2.037 2.037 0 00-2.048 2.025c0 1.119.917 2.026 2.049 2.026zm9.217-20.256a2.037 2.037 0 002.048-2.026 2.037 2.037 0 00-2.048-2.026 2.037 2.037 0 00-2.048 2.026c0 1.119.917 2.026 2.048 2.026zM88.008 73.087c1.903 3.291 4.953 6.03 8.708 7.848m20.067.709c4.687-1.848 8.463-5.058 10.601-9.033m6.724 3.636a25.43 25.43 0 01-3.52 4.516m-12.32 7.58c3.909-1.302 7.413-3.261 10.33-5.722m-44.887-1.685a26.12 26.12 0 01-2.85-3.403m49.486 17.924l-4.763-.01a1.734 1.734 0 00-1.75 1.701 1.729 1.729 0 001.714 1.732l2.144.036h.005" stroke="#071D2B" stroke-width="1.5" stroke-linecap="round" stroke-linejoin="round"/><path d="M130.767 95.468l-5.817-.056c-1.008-.015-1.791-.805-1.786-1.767a1.751 1.751 0 011.77-1.732l5.828.08m-.174 54.473c25.444-6.031 44.523-28.907 44.523-55.926 0-6.506-1.361-12.967-3.689-19.033a55.42 55.42 0 00-.46-1.154 64.05 64.05 0 00-5.552-10.664m-11.517-13.56a72.852 72.852 0 00-27.7-15.722 68.88 68.88 0 00-4.697-1.256m-31.871.669a56.983 56.983 0 00-4.927 1.676c-6.002 2.35-11.732 5.757-16.987 10.33-7.986 6.946-14.367 15.853-18.316 25.676m79.197 75.181c-6.953 2.603-14.383 4.168-21.842 4.497-9.982.445-20.01-1.307-29.03-5.707a61.784 61.784 0 01-9.63-5.884 57.729 57.729 0 01-14.561-15.818c-5.582-8.972-8.545-19.423-8.545-29.97a54.6 54.6 0 01.292-5.667m.548-4.014a61.44 61.44 0 012.825-10.648" stroke="#071D2B" stroke-width="1.5" stroke-linecap="round" stroke-linejoin="round"/><path d="M130.587 141.904c.041-.015.077-.036.118-.051 6.124-2.521 11.855-6.43 16.224-11.398 1.699-1.924 3.275-4.081 4.41-6.42 1.193-2.42 1.914-5.038 1.827-7.777a14.31 14.31 0 00-.517-3.357c-.941-3.454-3.034-6.568-5.157-9.444-3.152-4.248-6.38-8.46-9.926-12.4-.691-.764-1.422-1.519-2.313-2.056-1.657-1.012-3.632-.638-5.474-.617l-4.027-.016c-.967 0-1.75.82-1.734 1.767.015.963.808 1.732 1.816 1.732l4.922.117" stroke="#071D2B" stroke-width="1.5" stroke-linecap="round" stroke-linejoin="round"/><path d="M130.587 74.292c4.574 2.365 9.113 4.674 13.426 7.53 5.623 3.72 10.509 8.703 14.065 14.486 3.571 5.802 7.444 14.035 3.893 20.679-1.959 3.666-5.935 6.273-10.018 6.967-5.638.957-9.89-2.243-12.284-7.124-2.016-4.112-2.645-10.056-5.95-13.469-1.919-1.98-4.539-1.063-6.995-1.134-.097-.005-.179-.005-.26-.01-.788.005-1.53-.517-1.684-1.291a1.67 1.67 0 01.133-1.069 1.666 1.666 0 011.458-.901c1.53-.036 2.968-.127 4.585-.091m7.48 14.759l11.767-5.894m-9.455 11.13l11.911-5.96" stroke="#071D2B" stroke-width="1.5" stroke-linecap="round" stroke-linejoin="round"/><path d="M142.934 115.073a1.132 1.132 0 01-1.09 1.17 1.133 1.133 0 01-1.177-1.084 1.131 1.131 0 011.09-1.17 1.133 1.133 0 011.177 1.084zm3.832-1.828a1.13 1.13 0 01-1.09 1.169 1.131 1.131 0 01-1.177-1.078 1.134 1.134 0 011.09-1.17 1.132 1.132 0 011.177 1.079zm3.703-1.762a1.131 1.131 0 01-1.09 1.17 1.133 1.133 0 01-1.177-1.084 1.132 1.132 0 011.09-1.17 1.133 1.133 0 011.177 1.084zM92.624 73.644c0 .593-.481 1.074-1.08 1.074a1.08 1.08 0 01-1.08-1.074c0-.592.482-1.068 1.08-1.068.594 0 1.08.476 1.08 1.068zm3.068 2.719c0 .593-.48 1.073-1.08 1.073a1.071 1.071 0 110-2.142c.6 0 1.08.477 1.08 1.069zm3.737 2.39c0 .593-.481 1.074-1.08 1.074a1.071 1.071 0 110-2.142c.599 0 1.08.476 1.08 1.068zm4.051 2.182a1.075 1.075 0 00-.982-1.524 1.075 1.075 0 00-.983 1.524M87.312 79.66c.596 0 1.08-.481 1.08-1.074 0-.593-.484-1.074-1.08-1.074-.596 0-1.08.48-1.08 1.074 0 .593.484 1.073 1.08 1.073zm33.779 4.618c.597 0 1.08-.481 1.08-1.074 0-.593-.483-1.074-1.08-1.074-.596 0-1.079.481-1.079 1.074 0 .593.483 1.074 1.079 1.074zm5.066-3.712a1.07 1.07 0 01-1.079 1.068c-.599 0-1.08-.48-1.08-1.068 0-.593.481-1.069 1.08-1.069a1.07 1.07 0 011.079 1.069zm-2.661-5.93c.596 0 1.079-.48 1.079-1.073s-.483-1.074-1.079-1.074c-.597 0-1.08.48-1.08 1.074 0 .593.483 1.073 1.08 1.073zm-4.15 1.646c0 .592.481 1.069 1.079 1.069.599 0 1.08-.482 1.08-1.07 0-.592-.481-1.068-1.08-1.068a1.07 1.07 0 00-1.079 1.069zm-3.735 2.39c0 .592.481 1.073 1.08 1.073a1.07 1.07 0 100-2.142 1.071 1.071 0 00-1.08 1.069zM55.678 68.545c-.818.218-1.335.344-1.97.567-.818.289-1.652.415-2.502.582-.757.147-1.637.056-2.373-.152-.435-.121-.952-.405-1.198-.795-.609-.967 1.034-1.083 1.597-1.205a32.025 32.025 0 002.374-.628 108.48 108.48 0 005.725-1.883c1.212-.436 2.497-.826 3.653-1.413" stroke="#071D2B" stroke-width="1.5" stroke-linecap="round" stroke-linejoin="round"/><path d="M41.413 60.763l4.15 18.891a.95.95 0 00.92.745h16.94c.326 0 .598.263.598.592v2.482a.593.593 0 01-.599.592H43.01l-5.106-23.05a.592.592 0 01.583-.718h2.344c.28 0 .521.192.583.466zm62.098-27.869H92.419a2.782 2.782 0 01-2.794-2.775v-1.975m0-10.269v-4.8a2.782 2.782 0 012.794-2.775h26.283a2.781 2.781 0 012.793 2.775v17.044a2.781 2.781 0 01-2.793 2.774h-9.389m46.882 20.755c1.182-.03 2.379-.197 3.561.015.599.107 1.085.269 1.085.947.005.937-.891 1.114-1.668 1.21-1.034.127-4.298.517-7.097.755" stroke="#071D2B" stroke-width="1.5" stroke-linecap="round" stroke-linejoin="round"/><path d="M158.855 55.856c.378-.005.772-.07 1.151.056.511.167.916.552.916 1.114 0 .785-.763 1.18-1.433 1.26-1.033.127-4.876.66-7.204.973" stroke="#071D2B" stroke-width="1.5" stroke-linecap="round" stroke-linejoin="round"/><path d="M156.69 58.661c1.377-.192 2.871-.44 3.29.481.44.962-.593 1.377-1.289 1.595-2.077.653-4.329.527-6.401 1.23-3.638 1.23-4.548 4.325-5.827 7.388-1.274 3.053-2.681 6.405-4.145 11.377m-9.73-5.407c3.464-5.2 11.307-16.507 13.098-19.52 1.049-1.767 2.369-3.544 4.42-4.202 1.448-.476 3.029-.35 4.529-.42 1.1-.051 2.215-.102 3.31-.071.829.02 2.824 0 2.932 1.21.102 1.088-.978 1.225-1.827 1.225-1.039-.015-2.292.071-3.326.142-1.192.081-1.785-.005-3.724.076" stroke="#071D2B" stroke-width="1.5" stroke-linecap="round" stroke-linejoin="round"/><path d="M153.729 51.203v-4.31c0-.273.061-.526.163-.759a1.867 1.867 0 011.689-1.083h7.966c1.023 0 1.857.825 1.857 1.843V63.81a1.852 1.852 0 01-1.857 1.843h-7.966a1.85 1.85 0 01-1.852-1.843v-2.213M78.323 79.001c-1.698-1.19-3.392-2.182-4.845-3.099-1.678-1.053-9.752-6.678-10.832-7.104-1.084-.425-2.082-.05-2.993.593-.844.592-1.565 1.337-2.292 2.06-1.14 1.125-2.65 2.532-4.282 2.866-.46.097-1.32.223-1.919.026a.73.73 0 01-.348-1.14l.102-.131c1.285-1.403 2.103-1.879 3.27-3.134.824-.886 1.816-1.6 2.655-2.476.972-1.013 1.786-2.157 2.866-3.064-.128.086-.267.157-.39.238.784-.506 1.224-1.028 2.242-1.093 2.276-.147 4.38 1.113 6.318 2.126 2.078 1.084 4.267 1.945 6.416 2.881 4.155 1.808 8.289 3.65 12.464 5.408" stroke="#071D2B" stroke-width="1.5" stroke-linecap="round" stroke-linejoin="round"/><path d="M163.63 46.873h-2.241v2.35h2.241v-2.35zM46.585 56.317l-1.888 1.256m3.25 3.447l-2.508-.252m-3.437-5.094l.721-2.4m127.072-10.401l-1.94 1.175m3.09 3.59l-2.492-.365m-3.213-5.235l.824-2.365M126.259 8.27l-1.939 1.17m3.09 3.59l-2.492-.365m-3.207-5.235l.819-2.365M84.891 61.532l-3.438-4.537a.972.972 0 01-.01-1.154 5.78 5.78 0 00.987-4.066c-.332-2.552-2.369-4.643-4.932-5.023-4.026-.598-7.403 2.835-6.718 6.81.43 2.492 2.513 4.451 5.04 4.775a5.869 5.869 0 003.356-.552.98.98 0 011.034.107l4.681 3.64zm70.863 24.193l3.847-2.643a.822.822 0 01.952.025 4.81 4.81 0 003.316.932c2.113-.187 3.898-1.777 4.292-3.843.619-3.246-2.098-6.096-5.392-5.666-2.068.268-3.751 1.899-4.094 3.934a4.704 4.704 0 00.348 2.74.79.79 0 01-.123.835l-3.146 3.686zm-46.66 54.619l3.469-2.324a.735.735 0 01.854.031 4.347 4.347 0 002.963.855c1.893-.146 3.504-1.549 3.878-3.387.583-2.886-1.827-5.448-4.784-5.089-1.852.223-3.372 1.661-3.699 3.474a4.16 4.16 0 00.286 2.44.699.699 0 01-.117.74l-2.85 3.26zm9.26-126.59a1.07 1.07 0 01-1.079 1.068c-.599 0-1.08-.481-1.08-1.068 0-.593.481-1.069 1.08-1.069a1.07 1.07 0 011.079 1.069zM137.92 35.03c-1.065-2.425-1.945-4.547-2.968-6.896-.987-2.264-2.103-4.639-4.088-6.223l-.466-.38c-.394-.33-.813-.648-1.248-.962-.067-.046-.128-.091-.194-.137a73.502 73.502 0 00-1.94-1.362l-.414-.273c-.87-.557-2.364-1.91-3.479-1.63-1.126.283-1.039 1.265-.425 1.928.266.284.583.547.844.735.251.177.558.395.901.628l.199.136c1.039.71 2.303 1.555 3.034 2.076.742.522 1.617 1.104 2.467 1.752" stroke="#071D2B" stroke-width="1.5" stroke-linecap="round" stroke-linejoin="round"/><path d="M178.182 20.257v2.532m0 3.039v2.532m4.096-4.051h-2.56m-3.072 0h-2.56M35.84 129.642v2.532m0 3.039v2.532m4.096-4.052h-2.56m-3.072 0h-2.56M190.47 41.526a2.037 2.037 0 002.048-2.025 2.037 2.037 0 00-2.048-2.026 2.037 2.037 0 00-2.048 2.026c0 1.119.917 2.025 2.048 2.025zM22.017 121.539c.848 0 1.536-.68 1.536-1.519 0-.839-.688-1.519-1.537-1.519-.848 0-1.535.68-1.535 1.519 0 .839.687 1.519 1.535 1.519z" stroke="#071D2B" stroke-width="1.5" stroke-miterlimit="10" stroke-linecap="round" stroke-linejoin="round"/></g><defs><clipPath id="clip0"><path fill="#fff" transform="translate(0 .001)" d="M0 0h213v158H0z"/></clipPath></defs></svg>