<svg width="213" height="158" fill="none" xmlns="http://www.w3.org/2000/svg"><g clip-path="url(#clip0)"><path d="M179.799 81.066c.071-1.017-1.088-1.838-2.183-1.912-1.094-.074-2.311.638-2.381 1.655-.07 1.017 1.36 1.89 2.455 1.964 1.095.074 2.039-.69 2.109-1.707z" fill="#BBED58"/><path opacity=".5" d="M72.788 120.566c.07-1.017-1.089-1.838-2.183-1.912-1.095-.074-2.311.639-2.382 1.655-.07 1.017 1.36 1.89 2.455 1.964 1.095.074 2.04-.69 2.11-1.707z" fill="#0070F6"/><path d="M81.6 83.377c4.965 5.476 6.331-5.952 11.554-10.584s13.98-4.608 12.134-9.742c-2.191-6.094-14.35-4.632-19.574 0-5.223 4.632-9.077 14.85-4.113 20.326z" fill="#FFDDBF"/><path d="M153.906 95.467c-6.645-2.923-2.439 6.03-4.581 10.794-2.143 4.765-9.369 6.876-5.453 10.3 4.648 4.064 13.986.003 16.128-4.761 2.143-4.765.551-13.41-6.094-16.333z" fill="#BBED58"/><path opacity=".5" d="M129.286 38.741c4.608 0 6.912-5.064 5.632-8.102-.306-.727-4.604-.573-8.96-.507-4.612.07-8.961.218-8.961 1.52 0 2.532 1.28.76 3.328 2.532 3.972 3.437 6.332 4.557 8.961 4.557z" fill="#0070F6"/><path d="M40.278 55.475c.821-.852.343-1.663-.472-2.43-.814-.768-1.656-1.201-2.477-.349-.822.853-.827 2.166-.012 2.934.814.767 2.14.698 2.961-.155z" fill="#FFBF00"/><path d="M120.514 69.104c.837 0 1.515-.671 1.515-1.5 0-.827-.678-1.498-1.515-1.498-.837 0-1.516.671-1.516 1.499 0 .828.679 1.499 1.516 1.499zm.861.314l5.156 10.832m-12.228.43l5.35-11.262m-3.169-39.538h18.945c.036 0 .041 2.058.026 2.256-.113 1.463-.512 2.84-1.229 4.076a9.226 9.226 0 01-1.633 2.092c-1.27 1.2-2.858 1.884-4.481 1.884-1.479 0-2.898-.537-4.029-1.443-.799-.639-1.403-1.439-1.936-2.3-.517-.83-1.039-1.66-1.915-2.167-1.095-.633-2.483-.859-3.748-.854" stroke="#071D2B" stroke-width="1.5" stroke-miterlimit="10" stroke-linecap="round" stroke-linejoin="round"/><path d="M124.703 34.121c3.697 3.803 6.907 0 6.907 0-3.097-3.768-6.907 0-6.907 0zm.532-.451l-.809-.957m3.881-.405l.02-1.27m1.71 1.635l.712-1.175m.507 2.167l.947-.962m-5.581-.071l-.507-1.154m-.183 11.439s3.056 2.077 7.393.593m25.621 35.798c2.058-3.606 4.096-7.226 6.001-10.913 3.118-6.036 6.589-11.141 3.789-17.892-2.197-5.292-7.471-8.47-13.338-8.47h-21.761m-17.208 96.94c3.18 1.079 6.876-.359 9.042-2.76 2.53-2.805 2.371-6.613.21-9.601-2.601-3.596-7.148-4.958-11.428-4.056-1.879.395-4.219 1.519-5.008 3.372-.901 2.107.656 4.011 2.514 4.791 3.795 1.595 8.833-.122 12.13-2.157 3.236-1.996 5.975-5.095 6.503-8.944.522-3.828-1.27-7.773-3.661-11.298M43.01 119.335c9.001-4.011 18.228-8.771 25.053-15.907 9.395-9.819 13.722-23.34 23.63-32.75 4.71-4.47 12.145-6.456 16.067-11.697 1.016-1.36 1.587-2.635 1.812-4.288M43.01 119.335c7.726 18.575 28.202 30.592 47.382 32.532" stroke="#071D2B" stroke-width="1.5" stroke-miterlimit="10" stroke-linecap="round" stroke-linejoin="round"/><path d="M138.225 13.146a4.15 4.15 0 00-4.674-1.56 4 4 0 00-.727-2.168 4.141 4.141 0 00-5.336-1.276 4.071 4.071 0 00-2.012-2.942 4.124 4.124 0 00-4.884.562 4.088 4.088 0 00-1.593-1.66c-1.961-1.13-4.465-.482-5.591 1.447a4.164 4.164 0 00-2.734-1.063 4.055 4.055 0 00-3.933 2.897 4.181 4.181 0 00-2.212-.664c-2.114-.015-3.855 1.56-4.07 3.596a4.121 4.121 0 00-3.58-.066 4.005 4.005 0 00-2.288 4.29 4.116 4.116 0 00-2.278.333 4.007 4.007 0 00-2.3 4.234 4.013 4.013 0 00-2.523 2.147c-.784 1.671-.313 3.6 1.029 4.765a3.991 3.991 0 00-1.521 1.702c-.891 1.894-.164 4.127 1.613 5.19a3.982 3.982 0 00-1.541 3.181c.015 1.843 1.275 3.398 2.985 3.89-.753 1.169-.917 2.744-.052 4.334.692 1.266 2.105 1.98 3.559 1.904.148 2.117 1.935 3.798 4.112 3.798a4.13 4.13 0 001.008-.126c.01-.005.02.005.026.015a4.125 4.125 0 005.816 2.593c.011-.005.021 0 .026.01a4.13 4.13 0 003.656 2.198 4.072 4.072 0 003.359-1.752c.005-.006.01-.01.02-.01a3.843 3.843 0 002.698-.304c1.316-.649 2.248-1.94 2.32-3.388a4.074 4.074 0 00-2.14-3.788 3.998 3.998 0 002.084-3.545c-.011-1.5-.85-2.81-2.084-3.51a4.011 4.011 0 002.155-3.58c-.01-1.453-.799-2.724-1.971-3.438a4.01 4.01 0 002.278-3.231c.41.136.85.212 1.306.212 1.362 0 2.56-.663 3.297-1.676a4.144 4.144 0 003.231 1.55 4.072 4.072 0 002.996-1.302 4.122 4.122 0 002.893 1.175 4.047 4.047 0 003.998-3.302c.067.005.134.01.2.01 2.263 0 4.081-1.813 4.066-4.05a4.04 4.04 0 00-.999-2.624 4.014 4.014 0 00.312-5.008zM120.397 66.03c-3.682.192-9.847-1.889-11.316-5.641-.435-1.11-.435-2.338-.021-3.67m11.583 9.291c2.135-.228 4.265-1.185 5.791-2.695 1.848-1.833.102-3.615-1.557-4.734" stroke="#071D2B" stroke-width="1.5" stroke-miterlimit="10" stroke-linecap="round" stroke-linejoin="round"/><path d="M134.425 25.603c.61.79 1.199 2.082 1.122 4.092l-.057 2.882c-.03 1.463 1.444 1.585 2.576 1.767.962.152 2.017.517 2.36 1.504.272.775.154 1.798-.44 2.42-.993 1.039-2.831.826-4.117 1.049-1.346.238-2.283.927-2.314 2.37l-.026 1.347-.071 3.702c-.118 5.955-8.602 1.818-11.434 4.877-.64.693-.747 1.57-.619 2.456.297 2.035 2.294 3.63 3.845 4.77 1.659 1.22 3.584 1.965 5.433 2.846 3.927 1.874 7.839 3.606 11.105 6.573 8.177 7.414 10.497 15.45 13.697 25.452" stroke="#071D2B" stroke-width="1.5" stroke-miterlimit="10" stroke-linecap="round" stroke-linejoin="round"/><path d="M140.984 91.887s-3.282 4.872-16.789 4.715c-3.912-.046-7.823-.122-11.73.157-6.103.44-14.193 1.727-14.787 9.288-.313 3.98 2.637 7.079 6.18 8.482 4.915 1.95 10.312 2.213 15.545 2.264 5.53.055 11.065.258 16.594.238 4.096-.016 8.228.258 12.289-.401 2.744-.44 5.786-1.255 7.823-3.301 2.453-2.456 2.596-6.118 2.018-9.333-.871-4.837-2.156-9.096-3.774-13.74-1.556-4.46-3.323-8.938-6.292-12.68a34.543 34.543 0 00-1.915-2.203c-5.797-6.077-14.209-9.692-22.683-9.394-4.424.157-8.848.897-12.995 2.462-4.306 1.62-8.177 4.157-11.7 7.064a55.743 55.743 0 00-1.771 1.524c-5.868 5.252-11.93 12.853-13.057 21.021-1.392 10.068 4.01 18.348 9.775 26.187 5.821 7.91 11.607 15.85 17.536 23.69a282.498 282.498 0 003.841 4.993c1.408 1.782 4.126 1.782 5.54.005 4.08-5.14 13.333-17.962 18.637-25.913" stroke="#071D2B" stroke-width="1.5" stroke-miterlimit="10" stroke-linecap="round" stroke-linejoin="round"/><path d="M137.166 84.955s2.857 4.233 3.86 6.522c.994 2.269 2.151 5.353 1.096 7.789-.957 2.218-3.666 2.507-5.668 3.297-2.499.982-4.838 2.304-7.158 3.641-4.71 2.719-9.493 5.398-14.618 7.277-6.999 2.567-15.51 4.046-22.15-.248-4.665-3.014-7.522-7.911-9.892-12.752C77.352 89.69 69.86 79.232 64.679 68.39c-2.888-6.037-6.16-11.141-3.103-17.892 2.397-5.291 8.085-8.465 13.948-8.465h13.824" stroke="#071D2B" stroke-width="1.5" stroke-miterlimit="10" stroke-linecap="round" stroke-linejoin="round"/><path d="M103.546 90.434c-1.659-1.823-3.415-3.504-5.002-5.388-1.214-1.444-3.41-4.178-.517-5.343.425-.116.885 0 1.203.304 1.633 1.56 2.519 2.886 3.738 4.097 1.377 1.367 7.096 6.912 8.586 8.31 1.147 1.074 2.422 2.005 3.661 2.973.497.39.978.805 1.464 1.215m-13.133-6.168c-3.451-1.616-7.127-2.745-10.465-4.588-.553-.304-1.23-.765-1.895-.593-.814.208-.845 1.423-.589 2.051.446 1.084 1.925 1.975 2.919 2.426 2.775 1.266 5.376 2.562 7.593 3.63" stroke="#071D2B" stroke-width="1.5" stroke-miterlimit="10" stroke-linecap="round" stroke-linejoin="round"/><path d="M101.109 93.356c-1.454-.137-2.903-.289-4.352-.44-1.213-.127-2.427-.249-3.64-.375-.605-.066-1.214-.127-1.818-.193-.763-.08-1.633-.268-2.37.05-.876.386-1.045 1.378-.472 2.092.318.4.794.714 1.3.816m10.794 1.139c-1.306-.127-2.607-.263-3.907-.395-1.214-.127-2.427-.248-3.64-.375-.605-.066-1.214-.126-1.818-.192-.763-.081-1.634-.269-2.37.05-.876.385-1.045 1.378-.472 2.092.784.982 2.31 1.038 3.461 1.114 3.072.197 6.17.4 9.053 1.291" stroke="#071D2B" stroke-width="1.5" stroke-miterlimit="10" stroke-linecap="round" stroke-linejoin="round"/><path d="M128.518 33.93a.51.51 0 00-.512-.506.51.51 0 00-.512.507c0 .28.229.506.512.506a.51.51 0 00.512-.506z" fill="#071D2B"/><path d="M51.202 75.963v2.532m0 3.038v2.532m4.096-4.051h-2.56m-3.072 0h-2.56M27.138 69.886c.848 0 1.536-.68 1.536-1.52 0-.839-.688-1.519-1.536-1.519-.849 0-1.536.68-1.536 1.52 0 .838.687 1.519 1.536 1.519zm8.704 22.282v1.899m0 2.279v1.899m3.072-3.039h-1.92m-2.304 0h-1.92m136.708-70.897v1.899m0 2.279v1.899m3.072-3.039h-1.92m-2.304 0h-1.92m22.017 18.737c.848 0 1.536-.68 1.536-1.519 0-.839-.688-1.52-1.536-1.52-.849 0-1.536.681-1.536 1.52 0 .84.687 1.52 1.536 1.52z" stroke="#071D2B" stroke-width="1.5" stroke-miterlimit="10" stroke-linecap="round" stroke-linejoin="round"/></g><defs><clipPath id="clip0"><path fill="#fff" transform="translate(0 .001)" d="M0 0h213v158H0z"/></clipPath></defs></svg>